PathFileType	4	(X/Y/Z)	G:\Shared drives\HPL_Drive\Nord Sprinting Study\Kristen_Nord_test\Trimmed_Nord000004.trc
DataRate	CameraRate	NumFrames	NumMarkers	Units	OrigDataRate	OrigDataStartFrame	OrigNumFrames
200.00	200.00	      4	52	mm	200.00	251	      1002
Frame#	Time	C7			R_Shoulder			L_Shoulder			Sternum			R_humerus			R_elbow_med			R_elbow_lat			R_forearm			R_wrist_radius			R_wrist_ulna			L_humerus			L_elbow_med			L_elbow_lat			L_forearm			L_wrist_radius			L_wrist_ulna			r.ASIS			r.PSIS			r_IC			L.ASIS			L.PSIS			l_IC			r_thigh1			r_thigh2			r_thigh3			r_thigh4			r_thigh5			r_knee			r_mknee			r_shank_antsup			r_sh2			r_sh3			r_sh4			r_ankle			r_mankle			r_calc			r_5meta			r_toe			L_thigh1			L_thigh2			L_thigh3			L_thigh4			L_knee			L_mknee			L_shank_antsup			L_sh2			L_sh3			L_ankle			L_mankle			L_calc			L_5meta			L_toe			
		X1	Y1	Z1	X2	Y2	Z2	X3	Y3	Z3	X4	Y4	Z4	X5	Y5	Z5	X6	Y6	Z6	X7	Y7	Z7	X8	Y8	Z8	X9	Y9	Z9	X10	Y10	Z10	X11	Y11	Z11	X12	Y12	Z12	X13	Y13	Z13	X14	Y14	Z14	X15	Y15	Z15	X16	Y16	Z16	X17	Y17	Z17	X18	Y18	Z18	X19	Y19	Z19	X20	Y20	Z20	X21	Y21	Z21	X22	Y22	Z22	X23	Y23	Z23	X24	Y24	Z24	X25	Y25	Z25	X26	Y26	Z26	X27	Y27	Z27	X28	Y28	Z28	X29	Y29	Z29	X30	Y30	Z30	X31	Y31	Z31	X32	Y32	Z32	X33	Y33	Z33	X34	Y34	Z34	X35	Y35	Z35	X36	Y36	Z36	X37	Y37	Z37	X38	Y38	Z38	X39	Y39	Z39	X40	Y40	Z40	X41	Y41	Z41	X42	Y42	Z42	X43	Y43	Z43	X44	Y44	Z44	X45	Y45	Z45	X46	Y46	Z46	X47	Y47	Z47	X48	Y48	Z48	X49	Y49	Z49	X50	Y50	Z50	X51	Y51	Z51	X52	Y52	Z52	

251	1.250	1222.18848	294.17398	1283.14807	1338.36023	344.58920	1290.76050	1083.59692	330.90985	1301.04041	1209.22156	426.88635	1252.48792	1514.73914	327.07620	1273.09375	1650.45520	375.35489	1208.47205	1646.74023	303.27963	1241.47290	1625.93628	343.95801	1363.12708	1578.28577	411.47165	1452.56140	1622.03992	393.47891	1464.34119	884.46857	288.86627	1266.76123	768.39050	332.96451	1194.54517	769.66626	261.73715	1223.26123	801.17407	313.20767	1359.57495	842.82520	366.51691	1434.02454	786.89587	363.03030	1441.86304	1328.40405	436.77884	783.61151	1287.71948	258.22702	855.45728	1368.38953	369.85071	871.47144	1089.91052	419.42780	782.27197	1171.87170	253.68893	850.04205	1066.91711	359.52365	860.23602	1388.92578	396.10562	525.56403	1383.53394	389.79257	410.27588	1393.67236	340.30627	382.17413	1400.07581	289.03220	533.08752	1380.39551	281.29221	415.21219	1377.29578	343.35187	305.16989	1249.73035	325.61920	314.47064	1402.12439	215.88405	289.29681	1386.54810	96.60138	282.52930	1395.36133	210.06631	365.10263	1383.77368	95.03243	365.23022	1374.46692	-72.84489	323.85919	1296.67932	-57.87907	284.84268	1317.15173	-99.16066	374.44244	1395.60437	-146.35547	221.82610	1360.44592	-123.89651	168.90720	1035.44897	391.52032	530.53241	1039.43298	385.73730	388.24326	1034.15015	271.25284	536.58435	1050.20178	271.74237	400.37823	1031.63879	310.42621	329.76120	1158.49670	319.84836	303.73926	1016.90186	202.31497	307.14404	1045.83008	202.56111	392.26932	1062.91931	83.82239	377.09982	1064.06226	-87.83613	333.39996	1130.62024	-60.78413	276.31821	1126.56006	-98.15440	368.05472	1037.58459	-166.41986	221.32423	1066.10571	-137.22719	160.87221	
252	1.255	1222.32166	294.93710	1282.93237	1338.24402	345.50470	1290.76892	1083.47778	331.99551	1300.99121	1209.19275	427.86234	1252.43030	1514.60852	327.89056	1273.09692	1650.36877	375.92972	1208.54944	1646.58936	303.92142	1241.50842	1625.80188	344.62683	1363.13037	1578.21741	412.15405	1452.50745	1622.09949	394.09085	1464.46863	884.33228	290.00253	1266.71533	768.33020	334.08749	1194.43359	769.53320	262.79922	1223.15649	801.00739	314.40872	1359.53406	842.62195	367.72495	1433.88525	786.77954	364.27621	1441.68750	1328.28101	437.40677	783.52850	1287.66992	258.99484	855.54858	1368.33813	370.56900	871.40521	1089.92749	420.18173	782.08191	1171.79407	254.42236	850.19116	1066.89783	360.30115	860.19757	1388.96130	396.40179	525.51971	1383.51074	389.96371	410.20444	1395.51282	341.35727	383.41769	1400.08459	289.30972	533.10132	1380.13867	281.73468	415.36227	1377.31409	343.35153	305.13934	1249.75195	325.59671	314.47241	1402.14771	215.89935	289.31326	1386.55664	96.60496	282.57260	1395.39575	210.05905	365.09698	1383.79590	95.03172	365.26080	1374.46667	-72.87392	323.89465	1296.67810	-57.90408	284.79877	1317.12854	-99.19624	374.43881	1395.61194	-146.34111	221.85858	1360.45544	-123.85867	168.95612	1036.93787	391.24261	528.65686	1039.42725	385.86295	388.18790	1034.29700	271.70767	537.27985	1050.21973	271.93976	400.48428	1031.64099	310.43707	329.77411	1158.49426	319.86240	303.76334	1017.17908	202.57614	307.25134	1045.76904	202.49596	392.24966	1062.95837	83.84506	377.16541	1064.09424	-87.88397	333.51846	1130.66211	-60.77487	276.38626	1126.54077	-98.22154	368.12265	1037.59265	-166.37679	221.36545	1066.11694	-137.16214	160.85797	
253	1.260	1222.04016	296.20651	1282.97803	1338.11731	346.46701	1290.74133	1083.37598	333.13702	1300.95178	1209.16663	428.88004	1252.34412	1514.47095	328.62781	1273.11401	1650.29358	376.49057	1208.55200	1646.47058	304.54807	1241.53613	1625.66187	345.33362	1363.12842	1578.13232	412.91647	1452.47522	1621.70300	394.78079	1464.34680	884.21942	291.11661	1266.65784	768.27515	335.23883	1194.24377	769.44244	264.02066	1223.06360	800.82495	315.58502	1359.37500	842.45325	368.94061	1433.75220	786.58777	365.50983	1441.47131	1328.31091	437.99799	783.28680	1287.62781	259.74976	855.66486	1368.27698	371.33719	871.32867	1089.89490	420.81360	781.94916	1171.77332	255.12228	850.27094	1066.87537	361.09564	860.19122	1388.94751	396.71194	525.47284	1383.50208	390.10455	410.13751	1393.60083	340.52017	382.08551	1400.05603	289.62463	533.15149	1380.10559	281.65930	415.40305	1377.30249	343.34268	305.12637	1249.76416	325.55283	314.47144	1402.14966	215.88428	289.32111	1386.56860	96.58820	282.58890	1395.39001	210.05231	365.10464	1383.83118	95.01181	365.28333	1374.47314	-72.86047	323.91101	1296.65063	-57.88555	284.88007	1317.12012	-99.21825	374.48163	1395.60144	-146.33501	221.88661	1360.45215	-123.86526	169.00536	1036.93005	391.56979	528.54199	1039.42590	385.97104	388.10477	1034.50610	272.46881	538.29468	1050.25488	272.04114	400.58411	1031.66199	310.46768	329.75458	1158.49011	319.86118	303.76169	1017.17224	202.51730	307.23190	1045.78931	202.49643	392.28714	1062.93713	83.83675	377.21835	1064.15076	-87.90771	333.52859	1130.74402	-60.77716	276.47244	1126.61414	-98.30339	368.19977	1037.56213	-166.35165	221.36420	1066.08838	-137.16357	160.97673	
254	1.265	1221.87036	297.13580	1283.05383	1337.98242	347.43488	1290.65503	1083.29468	334.22318	1300.92065	1209.10156	429.93933	1252.35815	1514.34119	329.40717	1273.17725	1650.49146	377.20648	1208.95178	1646.29736	305.12961	1241.59131	1625.55859	345.91644	1363.08057	1578.04321	413.83835	1452.43994	1621.78809	395.36014	1464.46289	884.12103	292.21811	1266.51196	768.20721	336.34293	1194.07007	769.34308	265.08789	1222.93945	800.74127	316.80316	1359.28198	842.31750	370.19894	1433.60742	786.42352	366.71368	1441.32544	1328.28247	438.61780	783.14874	1287.57520	260.45938	855.74579	1368.19995	372.12198	871.30219	1089.89441	421.43716	781.75940	1171.76404	255.89095	850.37006	1066.87793	361.88846	860.11346	1388.92224	396.99487	525.36688	1383.46814	390.25452	410.07678	1393.54578	340.61563	382.06873	1400.04578	289.94391	533.19897	1380.17993	281.82013	415.37314	1377.29199	343.38559	305.15955	1249.78528	325.54413	314.46115	1402.15063	215.86888	289.31973	1386.56934	96.59528	282.61166	1395.47241	210.05830	365.10001	1383.79614	95.02503	365.29404	1374.42126	-72.90215	323.96890	1296.64844	-57.89100	284.92599	1317.12793	-99.25071	374.50461	1395.60278	-146.32396	221.90845	1360.43970	-123.86364	168.95921	1036.88464	391.85898	528.50134	1039.44055	386.11926	388.02042	1034.42822	272.83676	538.39282	1050.30249	272.19183	400.67261	1031.68762	310.48859	329.76657	1158.49500	319.84622	303.74686	1017.22937	202.51228	307.41397	1045.75842	202.54628	392.34647	1062.96350	83.85596	377.27942	1064.23315	-87.92627	333.60443	1130.77527	-60.77325	276.51151	1126.68958	-98.36768	368.18057	1037.56165	-166.35582	221.40709	1066.12610	-137.14900	160.92763	
